# xmcd
#
# Track frame offsets: 
#        150
#        23691
#        37415
#        64990
#        83910
#        104648
#        121853
#        137678
#        151061
#        163636
#        179427
#        197685
#        214075
#        226786
#
# Disc length: 3144 seconds
#
# Revision: 0
# Processed by: cddbd v1.5.2PL0 Copyright (c) Steve Scherf et al.
# Submitted via: ExactAudioCopy v0.99pb3
#
DISCID=bd0c460e
DTITLE=R. J. Mischo - Knowledge You Can't Get In College
DYEAR=2010
DGENRE=Blues
TTITLE0=Two Hours From Tulsa
TTITLE1=Too Cool For School
TTITLE2=Knowledge You Can't Get In College
TTITLE3=Little Joe
TTITLE4=Ain't Nothin' New
TTITLE5=Ruthie Lee
TTITLE6=Please Don't Leave
TTITLE7=Teacher's Pet
TTITLE8=Big Plans
TTITLE9=Don't Look Twice
TTITLE10=Rich Cat
TTITLE11=Devil's Love Sin - The Wrong Man
TTITLE12=Down To The Bottom
TTITLE13=Mama Don't Tear My Clothes
EXTD=
EXTT0=
EXTT1=
EXTT2=
EXTT3=
EXTT4=
EXTT5=
EXTT6=
EXTT7=
EXTT8=
EXTT9=
EXTT10=
EXTT11=
EXTT12=
EXTT13=
PLAYORDER=
